<svg xmlns="http://www.w3.org/2000/svg" width="1200" height="630" viewBox="0 0 1200 630">
  <rect width="1200" height="630" fill="#F7F7F2"/>
  <g opacity=".55" stroke="#D9DAD3"><path d="M0 70h1200M0 140h1200M0 210h1200M0 280h1200M0 350h1200M0 420h1200M0 490h1200M0 560h1200"/><path d="M70 0v630M140 0v630M210 0v630M280 0v630M350 0v630M420 0v630M490 0v630M560 0v630M630 0v630M700 0v630M770 0v630M840 0v630M910 0v630M980 0v630M1050 0v630M1120 0v630"/></g>
  <rect x="70" y="66" width="64" height="64" rx="17" fill="#2E5CFF"/>
  <path d="M84 114h36" stroke="#1839AF" stroke-width="4" stroke-linecap="round" opacity=".55"/>
  <rect x="86" y="97" width="7" height="17" rx="3.5" fill="#fff"/><rect x="98.5" y="89" width="7" height="25" rx="3.5" fill="#fff"/><rect x="111" y="80" width="7" height="34" rx="3.5" fill="#fff"/><circle cx="117.5" cy="79.5" r="5.5" fill="#FF6B35" stroke="#F7F7F2" stroke-width="3"/>
  <text x="152" y="112" fill="#12151A" font-family="DejaVu Sans" font-size="38" font-weight="700" letter-spacing="-1.5">Coldrig</text>
  <text x="70" y="277" fill="#12151A" font-family="DejaVu Sans" font-size="72" font-weight="700" letter-spacing="-4">Your agent runs outreach.</text>
  <text x="70" y="360" fill="#2E5CFF" font-family="DejaVu Serif" font-size="78" font-style="italic" letter-spacing="-4">We run the rig.</text>
  <text x="74" y="435" fill="#62666E" font-family="DejaVu Sans" font-size="25">One token · 19 focused tools · server-side guardrails</text>
  <g transform="translate(905 135) rotate(3)"><rect width="220" height="310" rx="22" fill="#fff" stroke="#C6C8C0"/><rect x="22" y="25" width="176" height="14" rx="7" fill="#EEEEEE"/><rect x="22" y="65" width="110" height="24" rx="6" fill="#E9EDFF"/><rect x="22" y="110" width="176" height="48" rx="10" fill="#F3F0E9"/><rect x="22" y="174" width="176" height="38" rx="9" fill="#E8F7F0"/><rect x="22" y="224" width="176" height="38" rx="9" fill="#E9EDFF"/><circle cx="180" cy="29" r="5" fill="#14865B"/></g>
  <circle cx="1110" cy="505" r="13" fill="#FF6B35"/>
</svg>
